<svg width="226" height="302" viewBox="0 0 226 302" fill="none" xmlns="http://www.w3.org/2000/svg">
<circle cx="113" cy="106" r="106" fill="#7C15E3"/>
<path d="M113 302L210.861 149H15.1391L113 302Z" fill="#7C15E3"/>
<ellipse cx="113.5" cy="107" rx="88.5" ry="88" fill="#F2F2F2"/>
<path d="M123.944 129.515C125.276 124.859 126.796 121.307 128.505 118.858C130.215 116.409 133.025 113.94 136.936 111.449L146.792 105.56C151.094 102.71 153.819 99.1438 154.966 94.8597C156.072 90.7328 155.855 87.2203 154.315 84.3222C152.785 81.3847 149.956 79.3631 145.83 78.2573C141.821 77.1831 138.313 77.3808 135.308 78.8502C132.302 80.3197 130.32 82.8427 129.362 86.4193L118.455 83.4969C120.24 77.1507 123.874 72.6272 129.358 69.9262C134.892 67.1964 141.235 66.7898 148.389 68.7065C155.817 70.697 161.058 74.2496 164.11 79.3643C167.213 84.4503 167.832 90.4717 165.968 97.4284C164.125 104.307 159.125 110.233 150.967 115.209L142.835 119.854C139.113 122.269 136.451 126.464 134.851 132.438L123.944 129.515ZM118.464 148.078C118.938 146.309 119.864 144.977 121.241 144.083C122.668 143.159 124.443 142.982 126.565 143.55C128.687 144.119 130.136 145.16 130.91 146.673C131.694 148.147 131.85 149.769 131.376 151.537C130.902 153.306 129.957 154.632 128.54 155.517C127.134 156.362 125.37 156.5 123.248 155.931C121.125 155.362 119.667 154.361 118.871 152.926C118.126 151.462 117.991 149.846 118.464 148.078Z" fill="#E3BC20"/>
<path d="M87.3933 133.377C86.2187 128.679 85.7593 124.842 86.0153 121.867C86.2712 118.892 87.47 115.348 89.6118 111.235L95.2023 101.207C97.5033 96.5885 98.0799 92.1373 96.932 87.8532C95.8262 83.7263 93.8818 80.793 91.0987 79.0533C88.3051 77.2743 84.8449 76.9377 80.718 78.0435C76.709 79.1177 73.7705 81.0425 71.9024 83.8178C70.0342 86.5932 69.5793 89.7692 70.5377 93.3458L59.6309 96.2682C58.0035 89.88 58.8891 84.1453 62.2878 79.0642C65.7153 73.9333 71.0056 70.4094 78.1589 68.4927C85.5873 66.5023 91.902 66.9587 97.1031 69.8619C102.333 72.7152 105.88 77.6202 107.744 84.577C109.587 91.4551 108.22 99.088 103.643 107.476L98.9231 115.565C96.907 119.517 96.6993 124.48 98.3001 130.455L87.3933 133.377ZM91.9293 152.192C91.4554 150.424 91.5911 148.808 92.3363 147.344C93.1104 145.831 94.5586 144.79 96.681 144.221C98.8034 143.652 100.578 143.83 102.005 144.753C103.421 145.638 104.367 146.964 104.841 148.733C105.314 150.501 105.159 152.123 104.375 153.597C103.58 155.031 102.121 156.033 99.9984 156.602C97.876 157.17 96.1118 157.032 94.7059 156.187C93.3288 155.293 92.4032 153.961 91.9293 152.192Z" fill="#E3BC20"/>
</svg>
